{
	"asset":{
		"generator":"Khronos glTF Blender I/O v4.0.44",
		"version":"2.0"
	},
	"scene":0,
	"scenes":[
		{
			"extras":{
				"sun_pos_properties":{
					"show_surface":0,
					"show_analemmas":0,
					"show_north":0,
					"latitude":0.0,
					"day_of_year":77,
					"sun_object":{},
					"object_collection":{}
				},
				"storypencil_main_workspace":{},
				"storypencil_main_scene":{},
				"batch_export":{},
				"bsurfaces":{
					"SURFSK_mesh":{}
				},
				"dmgamnt":{},
				"automirror":{}
			},
			"name":"Scene",
			"nodes":[
				0,
				1,
				2,
				3,
				4,
				5,
				6
			]
		}
	],
	"nodes":[
		{
			"extras":{
				"tissue":{}
			},
			"mesh":0,
			"name":"Pista_percurso_Mesh",
			"translation":[
				18.996551513671875,
				0.3838497996330261,
				170
			]
		},
		{
			"mesh":1,
			"name":"Cube",
			"translation":[
				-38.600425720214844,
				43.74372863769531,
				-7.248960971832275
			]
		},
		{
			"extras":{
				"tissue":{}
			},
			"mesh":2,
			"name":"Pista_percurso_Mesh.001",
			"translation":[
				18.996551513671875,
				0.3838497996330261,
				170
			]
		},
		{
			"extras":{
				"tissue":{}
			},
			"mesh":3,
			"name":"Pista_percurso_Mesh.002",
			"translation":[
				18.996551513671875,
				0.3838497996330261,
				170
			]
		},
		{
			"mesh":4,
			"name":"Plane.001",
			"scale":[
				-273.9158630371094,
				-273.9158630371094,
				-273.9158630371094
			]
		},
		{
			"mesh":5,
			"name":"Cylinder.021",
			"scale":[
				17.22063636779785,
				17.22063636779785,
				17.22063636779785
			],
			"translation":[
				0,
				15.525660514831543,
				0
			]
		},
		{
			"mesh":6,
			"name":"Cylinder.022",
			"scale":[
				17.22063636779785,
				17.22063636779785,
				17.22063636779785
			],
			"translation":[
				-55.79534912109375,
				15.525660514831543,
				0
			]
		}
	],
	"materials":[
		{
			"doubleSided":true,
			"name":"Pista",
			"pbrMetallicRoughness":{
				"baseColorTexture":{
					"index":0
				},
				"metallicFactor":0,
				"roughnessFactor":0.5
			}
		},
		{
			"doubleSided":true,
			"name":"wood",
			"pbrMetallicRoughness":{
				"baseColorTexture":{
					"index":1
				},
				"metallicFactor":0,
				"roughnessFactor":0.5
			}
		},
		{
			"doubleSided":true,
			"name":"terra",
			"pbrMetallicRoughness":{
				"baseColorTexture":{
					"index":2
				},
				"metallicFactor":0,
				"roughnessFactor":0.5
			}
		}
	],
	"meshes":[
		{
			"name":"Pista_Reta.002",
			"primitives":[
				{
					"attributes":{
						"POSITION":0,
						"NORMAL":1,
						"TEXCOORD_0":2,
						"TANGENT":3
					},
					"indices":4,
					"material":0
				}
			]
		},
		{
			"name":"Cube.042",
			"primitives":[
				{
					"attributes":{
						"POSITION":5,
						"NORMAL":6,
						"TEXCOORD_0":7
					},
					"indices":8,
					"material":1
				}
			]
		},
		{
			"name":"Pista_Reta.004",
			"primitives":[
				{
					"attributes":{
						"POSITION":9,
						"NORMAL":10,
						"TEXCOORD_0":11,
						"TANGENT":12
					},
					"indices":13,
					"material":1
				}
			]
		},
		{
			"name":"Pista_Reta.005",
			"primitives":[
				{
					"attributes":{
						"POSITION":14,
						"NORMAL":15,
						"TEXCOORD_0":16,
						"TANGENT":17
					},
					"indices":18,
					"material":1
				}
			]
		},
		{
			"name":"Plane",
			"primitives":[
				{
					"attributes":{
						"POSITION":19,
						"NORMAL":20,
						"TEXCOORD_0":21,
						"TANGENT":22
					},
					"indices":23,
					"material":2
				}
			]
		},
		{
			"name":"Cylinder.026",
			"primitives":[
				{
					"attributes":{
						"POSITION":24,
						"NORMAL":25,
						"TEXCOORD_0":26
					},
					"indices":27,
					"material":1
				}
			]
		},
		{
			"name":"Cylinder.027",
			"primitives":[
				{
					"attributes":{
						"POSITION":28,
						"NORMAL":29,
						"TEXCOORD_0":30
					},
					"indices":27,
					"material":1
				}
			]
		}
	],
	"textures":[
		{
			"sampler":0,
			"source":0
		},
		{
			"sampler":0,
			"source":1
		},
		{
			"sampler":0,
			"source":1
		}
	],
	"images":[
		{
			"mimeType":"image/jpeg",
			"name":"18185fffe7d6f084833087374176d4a2",
			"uri":"Textura%202V/18185fffe7d6f084833087374176d4a2.jpg"
		},
		{
			"mimeType":"image/png",
			"name":"Artboard 1",
			"uri":"Textura%202V/Artboard%201.png"
		}
	],
	"accessors":[
		{
			"bufferView":0,
			"componentType":5126,
			"count":1246,
			"max":[
				123.2158432006836,
				66.56903076171875,
				11.61755084991455
			],
			"min":[
				-229.7488555908203,
				-0.9487432241439819,
				-246.59645080566406
			],
			"type":"VEC3"
		},
		{
			"bufferView":1,
			"componentType":5126,
			"count":1246,
			"type":"VEC3"
		},
		{
			"bufferView":2,
			"componentType":5126,
			"count":1246,
			"type":"VEC2"
		},
		{
			"bufferView":3,
			"componentType":5126,
			"count":1246,
			"type":"VEC4"
		},
		{
			"bufferView":4,
			"componentType":5123,
			"count":4248,
			"type":"SCALAR"
		},
		{
			"bufferView":5,
			"componentType":5126,
			"count":302,
			"max":[
				189.88153076171875,
				30.219247817993164,
				89.17530059814453
			],
			"min":[
				-189.8815460205078,
				-49.99885559082031,
				-87.5389175415039
			],
			"type":"VEC3"
		},
		{
			"bufferView":6,
			"componentType":5126,
			"count":302,
			"type":"VEC3"
		},
		{
			"bufferView":7,
			"componentType":5126,
			"count":302,
			"type":"VEC2"
		},
		{
			"bufferView":8,
			"componentType":5123,
			"count":519,
			"type":"SCALAR"
		},
		{
			"bufferView":9,
			"componentType":5126,
			"count":196,
			"max":[
				123.2158432006836,
				63.62648391723633,
				-103.20830535888672
			],
			"min":[
				-204.8942108154297,
				0.46591895818710327,
				-246.59645080566406
			],
			"type":"VEC3"
		},
		{
			"bufferView":10,
			"componentType":5126,
			"count":196,
			"type":"VEC3"
		},
		{
			"bufferView":11,
			"componentType":5126,
			"count":196,
			"type":"VEC2"
		},
		{
			"bufferView":12,
			"componentType":5126,
			"count":196,
			"type":"VEC4"
		},
		{
			"bufferView":13,
			"componentType":5123,
			"count":864,
			"type":"SCALAR"
		},
		{
			"bufferView":14,
			"componentType":5126,
			"count":164,
			"max":[
				90.71981811523438,
				63.550148010253906,
				-88.30209350585938
			],
			"min":[
				-187.1444854736328,
				3.0918049812316895,
				-225.18301391601562
			],
			"type":"VEC3"
		},
		{
			"bufferView":15,
			"componentType":5126,
			"count":164,
			"type":"VEC3"
		},
		{
			"bufferView":16,
			"componentType":5126,
			"count":164,
			"type":"VEC2"
		},
		{
			"bufferView":17,
			"componentType":5126,
			"count":164,
			"type":"VEC4"
		},
		{
			"bufferView":18,
			"componentType":5123,
			"count":720,
			"type":"SCALAR"
		},
		{
			"bufferView":19,
			"componentType":5126,
			"count":32,
			"max":[
				1.711258888244629,
				0.0021182550117373466,
				1.711258888244629
			],
			"min":[
				-1.711258888244629,
				0,
				-1.711258888244629
			],
			"type":"VEC3"
		},
		{
			"bufferView":20,
			"componentType":5126,
			"count":32,
			"type":"VEC3"
		},
		{
			"bufferView":21,
			"componentType":5126,
			"count":32,
			"type":"VEC2"
		},
		{
			"bufferView":22,
			"componentType":5126,
			"count":32,
			"type":"VEC4"
		},
		{
			"bufferView":23,
			"componentType":5123,
			"count":54,
			"type":"SCALAR"
		},
		{
			"bufferView":24,
			"componentType":5126,
			"count":72,
			"max":[
				0.6173357963562012,
				12.178357124328613,
				0.6173357963562012
			],
			"min":[
				-0.6173357963562012,
				-0.6698640584945679,
				-0.6173357963562012
			],
			"type":"VEC3"
		},
		{
			"bufferView":25,
			"componentType":5126,
			"count":72,
			"type":"VEC3"
		},
		{
			"bufferView":26,
			"componentType":5126,
			"count":72,
			"type":"VEC2"
		},
		{
			"bufferView":27,
			"componentType":5123,
			"count":132,
			"type":"SCALAR"
		},
		{
			"bufferView":28,
			"componentType":5126,
			"count":72,
			"max":[
				0.6173357963562012,
				12.178357124328613,
				0.6173357963562012
			],
			"min":[
				-0.6173357963562012,
				-0.6698640584945679,
				-0.6173357963562012
			],
			"type":"VEC3"
		},
		{
			"bufferView":29,
			"componentType":5126,
			"count":72,
			"type":"VEC3"
		},
		{
			"bufferView":30,
			"componentType":5126,
			"count":72,
			"type":"VEC2"
		}
	],
	"bufferViews":[
		{
			"buffer":0,
			"byteLength":14952,
			"byteOffset":0,
			"target":34962
		},
		{
			"buffer":0,
			"byteLength":14952,
			"byteOffset":14952,
			"target":34962
		},
		{
			"buffer":0,
			"byteLength":9968,
			"byteOffset":29904,
			"target":34962
		},
		{
			"buffer":0,
			"byteLength":19936,
			"byteOffset":39872,
			"target":34962
		},
		{
			"buffer":0,
			"byteLength":8496,
			"byteOffset":59808,
			"target":34963
		},
		{
			"buffer":0,
			"byteLength":3624,
			"byteOffset":68304,
			"target":34962
		},
		{
			"buffer":0,
			"byteLength":3624,
			"byteOffset":71928,
			"target":34962
		},
		{
			"buffer":0,
			"byteLength":2416,
			"byteOffset":75552,
			"target":34962
		},
		{
			"buffer":0,
			"byteLength":1038,
			"byteOffset":77968,
			"target":34963
		},
		{
			"buffer":0,
			"byteLength":2352,
			"byteOffset":79008,
			"target":34962
		},
		{
			"buffer":0,
			"byteLength":2352,
			"byteOffset":81360,
			"target":34962
		},
		{
			"buffer":0,
			"byteLength":1568,
			"byteOffset":83712,
			"target":34962
		},
		{
			"buffer":0,
			"byteLength":3136,
			"byteOffset":85280,
			"target":34962
		},
		{
			"buffer":0,
			"byteLength":1728,
			"byteOffset":88416,
			"target":34963
		},
		{
			"buffer":0,
			"byteLength":1968,
			"byteOffset":90144,
			"target":34962
		},
		{
			"buffer":0,
			"byteLength":1968,
			"byteOffset":92112,
			"target":34962
		},
		{
			"buffer":0,
			"byteLength":1312,
			"byteOffset":94080,
			"target":34962
		},
		{
			"buffer":0,
			"byteLength":2624,
			"byteOffset":95392,
			"target":34962
		},
		{
			"buffer":0,
			"byteLength":1440,
			"byteOffset":98016,
			"target":34963
		},
		{
			"buffer":0,
			"byteLength":384,
			"byteOffset":99456,
			"target":34962
		},
		{
			"buffer":0,
			"byteLength":384,
			"byteOffset":99840,
			"target":34962
		},
		{
			"buffer":0,
			"byteLength":256,
			"byteOffset":100224,
			"target":34962
		},
		{
			"buffer":0,
			"byteLength":512,
			"byteOffset":100480,
			"target":34962
		},
		{
			"buffer":0,
			"byteLength":108,
			"byteOffset":100992,
			"target":34963
		},
		{
			"buffer":0,
			"byteLength":864,
			"byteOffset":101100,
			"target":34962
		},
		{
			"buffer":0,
			"byteLength":864,
			"byteOffset":101964,
			"target":34962
		},
		{
			"buffer":0,
			"byteLength":576,
			"byteOffset":102828,
			"target":34962
		},
		{
			"buffer":0,
			"byteLength":264,
			"byteOffset":103404,
			"target":34963
		},
		{
			"buffer":0,
			"byteLength":864,
			"byteOffset":103668,
			"target":34962
		},
		{
			"buffer":0,
			"byteLength":864,
			"byteOffset":104532,
			"target":34962
		},
		{
			"buffer":0,
			"byteLength":576,
			"byteOffset":105396,
			"target":34962
		}
	],
	"samplers":[
		{
			"magFilter":9729,
			"minFilter":9987
		}
	],
	"buffers":[
		{
			"byteLength":105972,
			"uri":"pista.bin"
		}
	]
}
