{
	"asset":{
		"generator":"Khronos glTF Blender I/O v4.1.63",
		"version":"2.0"
	},
	"scene":0,
	"scenes":[
		{
			"name":"Scene",
			"nodes":[
				6
			]
		}
	],
	"nodes":[
		{
			"name":"Bone.004",
			"rotation":[
				-1.0339757656912846e-25,
				0,
				0,
				1
			],
			"translation":[
				0,
				0.6800001859664917,
				0
			]
		},
		{
			"children":[
				0
			],
			"name":"Bone.003",
			"rotation":[
				-1.0339757656912846e-25,
				1.1920928955078125e-07,
				5.169878828456423e-26,
				1
			],
			"translation":[
				0,
				0.31999993324279785,
				0
			]
		},
		{
			"children":[
				1
			],
			"name":"Bone.002",
			"rotation":[
				-7.458467574929258e-34,
				-2.7755575615628914e-17,
				2.6871961432965068e-17,
				1
			],
			"translation":[
				-2.2453916989425443e-18,
				0.30000007152557373,
				-1.2464427817341052e-34
			]
		},
		{
			"children":[
				2
			],
			"name":"Bone.001",
			"rotation":[
				1.1157165191733043e-09,
				3.9598477274971344e-10,
				3.959847172385622e-10,
				1
			],
			"translation":[
				0,
				0.2826986312866211,
				0
			]
		},
		{
			"children":[
				3
			],
			"name":"Bone",
			"rotation":[
				-5.578582595866521e-10,
				-3.9598474499413783e-10,
				-3.9598474499413783e-10,
				1
			]
		},
		{
			"mesh":0,
			"name":"Cube",
			"skin":0
		},
		{
			"children":[
				5,
				4
			],
			"name":"Bomb",
			"translation":[
				0,
				-2.3826987743377686,
				0
			]
		}
	],
	"animations":[
		{
			"channels":[
				{
					"sampler":0,
					"target":{
						"node":4,
						"path":"translation"
					}
				},
				{
					"sampler":1,
					"target":{
						"node":4,
						"path":"rotation"
					}
				},
				{
					"sampler":2,
					"target":{
						"node":4,
						"path":"scale"
					}
				},
				{
					"sampler":3,
					"target":{
						"node":3,
						"path":"translation"
					}
				},
				{
					"sampler":4,
					"target":{
						"node":3,
						"path":"rotation"
					}
				},
				{
					"sampler":5,
					"target":{
						"node":3,
						"path":"scale"
					}
				},
				{
					"sampler":6,
					"target":{
						"node":2,
						"path":"translation"
					}
				},
				{
					"sampler":7,
					"target":{
						"node":2,
						"path":"rotation"
					}
				},
				{
					"sampler":8,
					"target":{
						"node":2,
						"path":"scale"
					}
				},
				{
					"sampler":9,
					"target":{
						"node":1,
						"path":"translation"
					}
				},
				{
					"sampler":10,
					"target":{
						"node":1,
						"path":"rotation"
					}
				},
				{
					"sampler":11,
					"target":{
						"node":1,
						"path":"scale"
					}
				},
				{
					"sampler":12,
					"target":{
						"node":0,
						"path":"translation"
					}
				},
				{
					"sampler":13,
					"target":{
						"node":0,
						"path":"rotation"
					}
				},
				{
					"sampler":14,
					"target":{
						"node":0,
						"path":"scale"
					}
				}
			],
			"name":"Animation",
			"samplers":[
				{
					"input":7,
					"interpolation":"STEP",
					"output":8
				},
				{
					"input":9,
					"interpolation":"LINEAR",
					"output":10
				},
				{
					"input":7,
					"interpolation":"STEP",
					"output":11
				},
				{
					"input":7,
					"interpolation":"STEP",
					"output":12
				},
				{
					"input":9,
					"interpolation":"LINEAR",
					"output":13
				},
				{
					"input":7,
					"interpolation":"STEP",
					"output":14
				},
				{
					"input":7,
					"interpolation":"STEP",
					"output":15
				},
				{
					"input":9,
					"interpolation":"LINEAR",
					"output":16
				},
				{
					"input":7,
					"interpolation":"STEP",
					"output":17
				},
				{
					"input":7,
					"interpolation":"STEP",
					"output":18
				},
				{
					"input":9,
					"interpolation":"LINEAR",
					"output":19
				},
				{
					"input":7,
					"interpolation":"STEP",
					"output":20
				},
				{
					"input":7,
					"interpolation":"STEP",
					"output":21
				},
				{
					"input":9,
					"interpolation":"LINEAR",
					"output":22
				},
				{
					"input":7,
					"interpolation":"STEP",
					"output":23
				}
			]
		}
	],
	"materials":[
		{
			"doubleSided":true,
			"name":"BombFish",
			"pbrMetallicRoughness":{
				"baseColorTexture":{
					"index":0
				},
				"metallicFactor":0,
				"roughnessFactor":0.5
			}
		}
	],
	"meshes":[
		{
			"name":"Cube",
			"primitives":[
				{
					"attributes":{
						"POSITION":0,
						"NORMAL":1,
						"TEXCOORD_0":2,
						"JOINTS_0":3,
						"WEIGHTS_0":4
					},
					"indices":5,
					"material":0
				}
			]
		}
	],
	"textures":[
		{
			"sampler":0,
			"source":0
		}
	],
	"images":[
		{
			"mimeType":"image/png",
			"name":"BobFish",
			"uri":"BobFish.png"
		}
	],
	"skins":[
		{
			"inverseBindMatrices":6,
			"joints":[
				4,
				3,
				2,
				1,
				0
			],
			"name":"Bomb"
		}
	],
	"accessors":[
		{
			"bufferView":0,
			"componentType":5126,
			"count":1136,
			"max":[
				1.0925096273422241,
				0.8395063877105713,
				0.9720774292945862
			],
			"min":[
				-1.0925096273422241,
				-2.3826987743377686,
				-0.8395062685012817
			],
			"type":"VEC3"
		},
		{
			"bufferView":1,
			"componentType":5126,
			"count":1136,
			"type":"VEC3"
		},
		{
			"bufferView":2,
			"componentType":5126,
			"count":1136,
			"type":"VEC2"
		},
		{
			"bufferView":3,
			"componentType":5121,
			"count":1136,
			"type":"VEC4"
		},
		{
			"bufferView":4,
			"componentType":5126,
			"count":1136,
			"type":"VEC4"
		},
		{
			"bufferView":5,
			"componentType":5123,
			"count":1704,
			"type":"SCALAR"
		},
		{
			"bufferView":6,
			"componentType":5126,
			"count":5,
			"type":"MAT4"
		},
		{
			"bufferView":7,
			"componentType":5126,
			"count":2,
			"max":[
				8.333333333333334
			],
			"min":[
				0.125
			],
			"type":"SCALAR"
		},
		{
			"bufferView":8,
			"componentType":5126,
			"count":2,
			"type":"VEC3"
		},
		{
			"bufferView":9,
			"componentType":5126,
			"count":198,
			"max":[
				8.333333333333334
			],
			"min":[
				0.125
			],
			"type":"SCALAR"
		},
		{
			"bufferView":10,
			"componentType":5126,
			"count":198,
			"type":"VEC4"
		},
		{
			"bufferView":11,
			"componentType":5126,
			"count":2,
			"type":"VEC3"
		},
		{
			"bufferView":12,
			"componentType":5126,
			"count":2,
			"type":"VEC3"
		},
		{
			"bufferView":13,
			"componentType":5126,
			"count":198,
			"type":"VEC4"
		},
		{
			"bufferView":14,
			"componentType":5126,
			"count":2,
			"type":"VEC3"
		},
		{
			"bufferView":15,
			"componentType":5126,
			"count":2,
			"type":"VEC3"
		},
		{
			"bufferView":16,
			"componentType":5126,
			"count":198,
			"type":"VEC4"
		},
		{
			"bufferView":17,
			"componentType":5126,
			"count":2,
			"type":"VEC3"
		},
		{
			"bufferView":18,
			"componentType":5126,
			"count":2,
			"type":"VEC3"
		},
		{
			"bufferView":19,
			"componentType":5126,
			"count":198,
			"type":"VEC4"
		},
		{
			"bufferView":20,
			"componentType":5126,
			"count":2,
			"type":"VEC3"
		},
		{
			"bufferView":21,
			"componentType":5126,
			"count":2,
			"type":"VEC3"
		},
		{
			"bufferView":22,
			"componentType":5126,
			"count":198,
			"type":"VEC4"
		},
		{
			"bufferView":23,
			"componentType":5126,
			"count":2,
			"type":"VEC3"
		}
	],
	"bufferViews":[
		{
			"buffer":0,
			"byteLength":13632,
			"byteOffset":0,
			"target":34962
		},
		{
			"buffer":0,
			"byteLength":13632,
			"byteOffset":13632,
			"target":34962
		},
		{
			"buffer":0,
			"byteLength":9088,
			"byteOffset":27264,
			"target":34962
		},
		{
			"buffer":0,
			"byteLength":4544,
			"byteOffset":36352,
			"target":34962
		},
		{
			"buffer":0,
			"byteLength":18176,
			"byteOffset":40896,
			"target":34962
		},
		{
			"buffer":0,
			"byteLength":3408,
			"byteOffset":59072,
			"target":34963
		},
		{
			"buffer":0,
			"byteLength":320,
			"byteOffset":62480
		},
		{
			"buffer":0,
			"byteLength":8,
			"byteOffset":62800
		},
		{
			"buffer":0,
			"byteLength":24,
			"byteOffset":62808
		},
		{
			"buffer":0,
			"byteLength":792,
			"byteOffset":62832
		},
		{
			"buffer":0,
			"byteLength":3168,
			"byteOffset":63624
		},
		{
			"buffer":0,
			"byteLength":24,
			"byteOffset":66792
		},
		{
			"buffer":0,
			"byteLength":24,
			"byteOffset":66816
		},
		{
			"buffer":0,
			"byteLength":3168,
			"byteOffset":66840
		},
		{
			"buffer":0,
			"byteLength":24,
			"byteOffset":70008
		},
		{
			"buffer":0,
			"byteLength":24,
			"byteOffset":70032
		},
		{
			"buffer":0,
			"byteLength":3168,
			"byteOffset":70056
		},
		{
			"buffer":0,
			"byteLength":24,
			"byteOffset":73224
		},
		{
			"buffer":0,
			"byteLength":24,
			"byteOffset":73248
		},
		{
			"buffer":0,
			"byteLength":3168,
			"byteOffset":73272
		},
		{
			"buffer":0,
			"byteLength":24,
			"byteOffset":76440
		},
		{
			"buffer":0,
			"byteLength":24,
			"byteOffset":76464
		},
		{
			"buffer":0,
			"byteLength":3168,
			"byteOffset":76488
		},
		{
			"buffer":0,
			"byteLength":24,
			"byteOffset":79656
		}
	],
	"samplers":[
		{
			"magFilter":9728,
			"minFilter":9984
		}
	],
	"buffers":[
		{
			"byteLength":79680,
			"uri":"Bomba.bin"
		}
	]
}
