{
	"asset":{
		"generator":"Khronos glTF Blender I/O v4.1.63",
		"version":"2.0"
	},
	"scene":0,
	"scenes":[
		{
			"name":"Scene",
			"nodes":[
				0
			]
		}
	],
	"nodes":[
		{
			"mesh":0,
			"name":"Torpedo"
		}
	],
	"materials":[
		{
			"doubleSided":true,
			"name":"Material.001",
			"pbrMetallicRoughness":{
				"baseColorTexture":{
					"index":0
				},
				"metallicFactor":0,
				"roughnessFactor":0.5
			}
		}
	],
	"meshes":[
		{
			"name":"Cube.008",
			"primitives":[
				{
					"attributes":{
						"POSITION":0,
						"NORMAL":1,
						"TEXCOORD_0":2
					},
					"indices":3,
					"material":0
				}
			]
		}
	],
	"textures":[
		{
			"sampler":0,
			"source":0
		}
	],
	"images":[
		{
			"mimeType":"image/png",
			"name":"Torpedo",
			"uri":"Torpedo.png"
		}
	],
	"accessors":[
		{
			"bufferView":0,
			"componentType":5126,
			"count":345,
			"max":[
				0.9166666865348816,
				3.9860358238220215,
				0.9166667461395264
			],
			"min":[
				-0.9166666865348816,
				-0.006783008575439453,
				-0.9166666865348816
			],
			"type":"VEC3"
		},
		{
			"bufferView":1,
			"componentType":5126,
			"count":345,
			"type":"VEC3"
		},
		{
			"bufferView":2,
			"componentType":5126,
			"count":345,
			"type":"VEC2"
		},
		{
			"bufferView":3,
			"componentType":5123,
			"count":528,
			"type":"SCALAR"
		}
	],
	"bufferViews":[
		{
			"buffer":0,
			"byteLength":4140,
			"byteOffset":0,
			"target":34962
		},
		{
			"buffer":0,
			"byteLength":4140,
			"byteOffset":4140,
			"target":34962
		},
		{
			"buffer":0,
			"byteLength":2760,
			"byteOffset":8280,
			"target":34962
		},
		{
			"buffer":0,
			"byteLength":1056,
			"byteOffset":11040,
			"target":34963
		}
	],
	"samplers":[
		{
			"magFilter":9728,
			"minFilter":9984
		}
	],
	"buffers":[
		{
			"byteLength":12096,
			"uri":"Topedo.bin"
		}
	]
}
