####
#
# OBJ File Generated by Meshlab
#
####
# Object bus_a.obj
#
# Vertices: 188
# Faces: 112
#
####
mtllib ./bus_a.obj.mtl

vn -0.363131 0.000000 0.000000
v 0.921387 0.380127 1.487549 0.972549 0.972549 0.972549
vn -0.607016 0.000000 0.000000
v 0.921387 -0.014404 1.637939 0.972549 0.972549 0.972549
vn -0.607016 -0.061283 0.159219
v 0.921387 0.380127 2.407959 0.972549 0.972549 0.972549
vn -0.243885 -0.122567 0.318438
v 0.921387 -0.014404 2.256104 0.972549 0.972549 0.972549
vn 0.363131 -0.122567 0.318438
v 1.324951 0.380127 2.407959 0.972549 0.972549 0.972549
vn 0.606919 -0.061283 0.159219
v 1.324951 -0.014404 2.256104 0.972549 0.972549 0.972549
vn 0.606919 -0.060791 -0.159219
v 1.324951 0.380127 1.487549 0.972549 0.972549 0.972549
vn 0.243885 -0.121483 -0.318438
v 1.324951 -0.014404 1.638184 0.972549 0.972549 0.972549
vn 0.000097 -0.121483 -0.318438
v 0.921387 0.380127 1.487549 0.972549 0.972549 0.972549
vn 0.000097 -0.060692 -0.159219
v 0.921387 -0.014404 1.637939 0.972549 0.972549 0.972549
vn 0.362906 0.000000 0.000000
v -0.921387 0.380127 -1.487549 0.972549 0.972549 0.972549
vn 0.607406 0.000000 0.000000
v -0.921387 -0.014160 -1.636475 0.972549 0.972549 0.972549
vn 0.607406 -0.061283 -0.159219
v -0.921387 0.380127 -2.407959 0.972549 0.972549 0.972549
vn 0.244500 -0.122567 -0.318438
v -0.921387 -0.014404 -2.256104 0.972549 0.972549 0.972549
vn -0.363131 -0.122567 -0.318438
v -1.324951 0.380127 -2.407959 0.972549 0.972549 0.972549
vn -0.606919 -0.061283 -0.159219
v -1.324951 -0.014404 -2.256104 0.972549 0.972549 0.972549
vn -0.606919 -0.060791 0.159219
v -1.324951 0.380127 -1.487549 0.972549 0.972549 0.972549
vn -0.244426 -0.120892 0.318339
v -1.324951 -0.014404 -1.638184 0.972549 0.972549 0.972549
vn -0.000637 -0.120892 0.318339
v -0.921387 0.380127 -1.487549 0.972549 0.972549 0.972549
vn -0.000637 -0.060101 0.159120
v -0.921387 -0.014160 -1.636475 0.972549 0.972549 0.972549
vn 0.000000 -0.060101 0.159120
v 0.921387 0.380127 -1.487549 0.972549 0.972549 0.972549
vn 0.000637 -0.120892 0.318339
v 0.921387 -0.014160 -1.636475 0.972549 0.972549 0.972549
vn 0.363768 -0.120892 0.318339
v 1.324951 0.380127 -1.487549 0.972549 0.972549 0.972549
vn 0.607557 -0.060791 0.159219
v 1.324951 -0.014404 -1.638184 0.972549 0.972549 0.972549
vn 0.606919 -0.061283 -0.159219
v 1.324951 0.380127 -2.407959 0.972549 0.972549 0.972549
vn 0.243789 -0.122567 -0.318438
v 1.324951 -0.014404 -2.256104 0.972549 0.972549 0.972549
vn -0.363131 -0.122567 -0.318438
v 0.921387 0.380127 -2.407959 0.972549 0.972549 0.972549
vn -0.607406 -0.061283 -0.159219
v 0.921387 -0.014404 -2.256104 0.972549 0.972549 0.972549
vn -0.607406 0.000000 0.000000
v 0.921387 0.380127 -1.487549 0.972549 0.972549 0.972549
vn -0.244275 0.000000 0.000000
v 0.921387 -0.014160 -1.636475 0.972549 0.972549 0.972549
vn 0.000000 -0.060692 -0.159219
v -0.921387 0.380127 1.487549 0.972549 0.972549 0.972549
vn -0.000097 -0.121483 -0.318438
v -0.921387 -0.014404 1.637939 0.972549 0.972549 0.972549
vn -0.363227 -0.121483 -0.318438
v -1.324951 0.380127 1.487549 0.972549 0.972549 0.972549
vn -0.607016 -0.060791 -0.159219
v -1.324951 -0.014404 1.638184 0.972549 0.972549 0.972549
vn -0.606919 -0.061283 0.159219
v -1.324951 0.380127 2.407959 0.972549 0.972549 0.972549
vn -0.243789 -0.122567 0.318438
v -1.324951 -0.014404 2.256104 0.972549 0.972549 0.972549
vn 0.363131 -0.122567 0.318438
v -0.921387 0.380127 2.407959 0.972549 0.972549 0.972549
vn 0.607016 -0.061283 0.159219
v -0.921387 -0.014404 2.256104 0.972549 0.972549 0.972549
vn 0.607016 0.000000 0.000000
v -0.921387 0.380127 1.487549 0.972549 0.972549 0.972549
vn 0.243885 0.000000 0.000000
v -0.921387 -0.014404 1.637939 0.972549 0.972549 0.972549
vn -0.220442 0.016451 0.021964
v -1.388916 0.323730 -2.884277 0.972549 0.972549 0.972549
vn -0.426986 0.029835 0.043529
v -1.364502 0.650879 -2.884277 0.972549 0.972549 0.972549
vn -0.426986 0.153542 -0.909163
v -1.456055 0.323730 -3.558105 0.972549 0.972549 0.972549
vn -0.206544 0.258619 -1.867046
v -1.430420 0.650879 -3.515625 0.972549 0.972549 0.972549
vn 0.220442 0.259656 -1.866647
v 1.456055 0.323730 -3.558105 0.972549 0.972549 0.972549
vn 0.426986 0.151364 -0.892390
v 1.430420 0.650879 -3.515625 0.972549 0.972549 0.972549
vn 0.426986 0.029835 0.043529
v 1.388916 0.323730 -2.884277 0.972549 0.972549 0.972549
vn 0.206544 0.015414 0.021565
v 1.364502 0.650879 -2.884277 0.972549 0.972549 0.972549
vn -0.028794 -0.000121 -0.000013
v -1.328369 2.812500 3.153809 0.972549 0.972549 0.972549
vn -0.671185 0.239529 -0.005187
v -1.328613 2.839600 3.437500 0.972549 0.972549 0.972549
vn -3.418040 1.221552 -0.005551
v -1.327881 2.812500 2.091309 0.972549 0.972549 0.972549
vn -6.536740 2.355760 -0.006630
v -1.150391 3.309326 3.066650 0.972549 0.972549 0.972549
vn -5.894350 2.116111 -0.001456
v -1.327148 2.812500 -3.437500 0.972549 0.972549 0.972549
vn -3.147494 1.134088 -0.001092
v -1.148193 3.309326 -3.268555 0.972549 0.972549 0.972549
vn 1.195312 0.000778 -0.000549
v 1.327881 2.812500 2.091309 0.972549 0.972549 0.972549
vn 2.548919 0.000793 -0.000255
v 1.328369 2.812500 3.153809 0.972549 0.972549 0.972549
vn 4.036336 0.000793 0.000068
v 1.328613 1.687500 2.091309 0.972549 0.972549 0.972549
vn 4.229333 0.000290 0.000616
v 1.328369 1.605469 3.217041 0.972549 0.972549 0.972549
vn 2.875727 0.000274 0.000321
v 1.328613 0.366211 2.091309 0.972549 0.972549 0.972549
vn 1.388310 0.000274 -0.000001
v 1.328613 0.370605 3.215576 0.972549 0.972549 0.972549
vn 0.143307 0.050469 -0.004944
v 1.328613 2.839600 3.437500 0.972549 0.972549 0.972549
vn 0.671185 0.239529 -0.005187
v 1.328369 2.812500 3.153809 0.972549 0.972549 0.972549
vn 3.818679 1.366108 -0.006279
v 1.150391 3.309326 3.066650 0.972549 0.972549 0.972549
vn 6.422227 2.305170 -0.001699
v 1.327881 2.812500 2.091309 0.972549 0.972549 0.972549
vn 5.894350 2.116111 -0.001456
v 1.148193 3.309326 -3.268555 0.972549 0.972549 0.972549
vn 2.746856 0.989532 -0.000364
v 1.327148 2.812500 -3.437500 0.972549 0.972549 0.972549
vn 0.177751 0.012020 -0.021379
v 1.379395 0.322266 3.154541 0.972549 0.972549 0.972549
vn 0.340231 0.020937 -0.042409
v 1.355225 0.679688 3.154541 0.972549 0.972549 0.972549
vn 0.340231 0.143915 0.986401
v 1.439209 0.322266 3.651855 0.972549 0.972549 0.972549
vn 0.162480 0.252723 2.018614
v 1.414063 0.679688 3.609131 0.972549 0.972549 0.972549
vn 0.000000 0.243806 2.039644
v -1.439209 0.322266 3.651855 0.972549 0.972549 0.972549
vn 0.000000 0.120829 1.010834
v -1.414063 0.679688 3.609131 0.972549 0.972549 0.972549
vn -2.000000 0.000622 -0.000200
v -1.328369 1.605469 3.217041 0.972549 0.972549 0.972549
vn -1.000000 0.000311 -0.000100
v -1.328369 2.812500 3.153809 0.972549 0.972549 0.972549
vn -2.000000 0.000622 -0.000200
v -1.327881 2.812500 2.091309 0.972549 0.972549 0.972549
vn -1.000000 0.000311 -0.000100
v -1.328613 1.687500 2.091309 0.972549 0.972549 0.972549
vn -1.999999 0.001953 -0.000133
v -1.327881 2.812500 2.091309 0.972549 0.972549 0.972549
vn -1.000000 0.000977 -0.000066
v -1.327148 2.812500 -3.437500 0.972549 0.972549 0.972549
vn -1.999999 0.001953 -0.000133
v -1.328613 1.687500 -3.437500 0.972549 0.972549 0.972549
vn -1.000000 0.000977 -0.000066
v -1.328613 1.687500 2.091309 0.972549 0.972549 0.972549
vn -2.000000 0.000000 0.000000
v -1.328613 1.687500 -3.437500 0.972549 0.972549 0.972549
vn -1.000000 0.000000 0.000000
v -1.328613 0.366211 -3.437500 0.972549 0.972549 0.972549
vn -2.000000 0.000000 0.000000
v -1.328613 0.366211 2.091309 0.972549 0.972549 0.972549
vn -1.000000 0.000000 0.000000
v -1.328613 1.687500 2.091309 0.972549 0.972549 0.972549
vn 2.000000 -0.000143 -0.001413
v 1.328613 1.570313 3.625000 0.972549 0.972549 0.972549
vn 1.000000 -0.000072 -0.000706
v 1.328369 1.605469 3.217041 0.972549 0.972549 0.972549
vn 2.000000 -0.000143 -0.001413
v 1.328369 2.812500 3.153809 0.972549 0.972549 0.972549
vn 1.000000 -0.000072 -0.000706
v 1.328613 2.839600 3.437500 0.972549 0.972549 0.972549
vn 0.000000 -1.999998 0.002534
v 1.328613 0.366211 -3.437500 0.972549 0.972549 0.972549
vn 0.000000 -0.999999 0.001267
v 1.328613 0.375000 3.500000 0.972549 0.972549 0.972549
vn 0.000000 -1.999998 0.002534
v -1.328613 0.375000 3.500000 0.972549 0.972549 0.972549
vn 0.000000 -0.999999 0.001267
v -1.328613 0.366211 -3.437500 0.972549 0.972549 0.972549
vn 0.000000 0.000000 -2.000000
v -1.327148 2.812500 -3.437500 0.972549 0.972549 0.972549
vn 0.000000 0.000000 -1.000000
v 1.327148 2.812500 -3.437500 0.972549 0.972549 0.972549
vn 0.000000 0.000000 -2.000000
v 1.328613 1.687500 -3.437500 0.972549 0.972549 0.972549
vn 0.000000 0.000000 -1.000000
v -1.328613 1.687500 -3.437500 0.972549 0.972549 0.972549
vn 1.999999 0.001953 -0.000133
v 1.327881 2.812500 2.091309 0.972549 0.972549 0.972549
vn 1.000000 0.000977 -0.000066
v 1.328613 1.687500 2.091309 0.972549 0.972549 0.972549
vn 1.999999 0.001953 -0.000133
v 1.328613 1.687500 -3.437500 0.972549 0.972549 0.972549
vn 1.000000 0.000977 -0.000066
v 1.327148 2.812500 -3.437500 0.972549 0.972549 0.972549
vn 0.000000 -0.208016 1.989153
v -1.328613 0.375000 3.500000 0.972549 0.972549 0.972549
vn 0.000000 -0.104008 0.994576
v 1.328613 0.375000 3.500000 0.972549 0.972549 0.972549
vn 0.000000 -0.208016 1.989153
v 1.328613 1.570313 3.625000 0.972549 0.972549 0.972549
vn 0.000000 -0.104008 0.994576
v -1.328613 1.570313 3.625000 0.972549 0.972549 0.972549
vn 2.000000 0.000000 0.000000
v 1.328613 1.687500 -3.437500 0.972549 0.972549 0.972549
vn 1.000000 0.000000 0.000000
v 1.328613 1.687500 2.091309 0.972549 0.972549 0.972549
vn 2.000000 0.000000 0.000000
v 1.328613 0.366211 2.091309 0.972549 0.972549 0.972549
vn 1.000000 0.000000 0.000000
v 1.328613 0.366211 -3.437500 0.972549 0.972549 0.972549
vn 0.000000 2.000000 0.000000
v 1.150391 3.309326 3.066650 0.972549 0.972549 0.972549
vn 0.000000 1.000000 0.000000
v 1.148193 3.309326 -3.268555 0.972549 0.972549 0.972549
vn 0.000000 2.000000 0.000000
v -1.148193 3.309326 -3.268555 0.972549 0.972549 0.972549
vn 0.000000 1.000000 0.000000
v -1.150391 3.309326 3.066650 0.972549 0.972549 0.972549
vn 0.000000 0.292270 1.978529
v 1.328613 1.570313 3.625000 0.972549 0.972549 0.972549
vn 0.000000 0.146135 0.989265
v 1.328613 2.839600 3.437500 0.972549 0.972549 0.972549
vn 0.000000 0.292270 1.978529
v -1.328613 2.839600 3.437500 0.972549 0.972549 0.972549
vn 0.000000 0.146135 0.989265
v -1.328613 1.570313 3.625000 0.972549 0.972549 0.972549
vn 0.000000 0.000000 -2.000000
v -1.328613 1.687500 -3.437500 0.972549 0.972549 0.972549
vn 0.000000 0.000000 -1.000000
v 1.328613 1.687500 -3.437500 0.972549 0.972549 0.972549
vn 0.000000 0.000000 -2.000000
v 1.328613 0.366211 -3.437500 0.972549 0.972549 0.972549
vn 0.000000 0.000000 -1.000000
v -1.328613 0.366211 -3.437500 0.972549 0.972549 0.972549
vn 0.000000 0.643888 -1.893517
v -1.148193 3.309326 -3.268555 0.972549 0.972549 0.972549
vn 0.000000 0.321944 -0.946759
v 1.148193 3.309326 -3.268555 0.972549 0.972549 0.972549
vn 0.000000 0.643888 -1.893517
v 1.327148 2.812500 -3.437500 0.972549 0.972549 0.972549
vn 0.000000 0.321944 -0.946759
v -1.327148 2.812500 -3.437500 0.972549 0.972549 0.972549
vn 0.000000 1.239317 1.569743
v 1.328613 2.839600 3.437500 0.972549 0.972549 0.972549
vn 0.000000 0.619659 0.784871
v 1.150391 3.309326 3.066650 0.972549 0.972549 0.972549
vn 0.000000 1.239317 1.569743
v -1.150391 3.309326 3.066650 0.972549 0.972549 0.972549
vn 0.000000 0.619659 0.784871
v -1.328613 2.839600 3.437500 0.972549 0.972549 0.972549
vn -2.000000 -0.000143 -0.001413
v -1.328613 1.570313 3.625000 0.972549 0.972549 0.972549
vn -1.000000 -0.000072 -0.000706
v -1.328613 2.839600 3.437500 0.972549 0.972549 0.972549
vn -2.000000 -0.000143 -0.001413
v -1.328369 2.812500 3.153809 0.972549 0.972549 0.972549
vn -1.000000 -0.000072 -0.000706
v -1.328369 1.605469 3.217041 0.972549 0.972549 0.972549
vn -2.000000 0.000237 -0.000694
v -1.328369 1.605469 3.217041 0.972549 0.972549 0.972549
vn -1.000000 0.000118 -0.000347
v -1.328613 0.370605 3.215576 0.972549 0.972549 0.972549
vn -2.000000 0.000237 -0.000694
v -1.328613 0.375000 3.500000 0.972549 0.972549 0.972549
vn -1.000000 0.000118 -0.000347
v -1.328613 1.570313 3.625000 0.972549 0.972549 0.972549
vn 2.000000 0.000237 -0.000694
v 1.328613 0.375000 3.500000 0.972549 0.972549 0.972549
vn 1.000000 0.000118 -0.000347
v 1.328613 0.370605 3.215576 0.972549 0.972549 0.972549
vn 2.000000 0.000237 -0.000694
v 1.328369 1.605469 3.217041 0.972549 0.972549 0.972549
vn 1.000000 0.000118 -0.000347
v 1.328613 1.570313 3.625000 0.972549 0.972549 0.972549
vn -2.000000 0.000191 0.000223
v -1.328613 0.370605 3.215576 0.972549 0.972549 0.972549
vn -1.000000 0.000095 0.000112
v -1.328369 1.605469 3.217041 0.972549 0.972549 0.972549
vn -2.000000 0.000191 0.000223
v -1.328613 1.687500 2.091309 0.972549 0.972549 0.972549
vn -1.000000 0.000095 0.000112
v -1.328613 0.366211 2.091309 0.972549 0.972549 0.972549
vn 0.000000 -2.000000 0.000000
v 1.324951 -0.014404 1.638184 0.972549 0.972549 0.972549
vn 0.000000 -1.000000 0.000000
v 1.324951 -0.014404 2.256104 0.972549 0.972549 0.972549
vn 0.000000 -2.000000 0.000000
v 0.921387 -0.014404 2.256104 0.972549 0.972549 0.972549
vn 0.000000 -1.000000 0.000000
v 0.921387 -0.014404 1.637939 0.972549 0.972549 0.972549
vn 0.000604 -2.000000 0.000395
v -1.324951 -0.014404 -1.638184 0.972549 0.972549 0.972549
vn 0.000302 -1.000000 0.000197
v -1.324951 -0.014404 -2.256104 0.972549 0.972549 0.972549
vn 0.000604 -2.000000 0.000395
v -0.921387 -0.014404 -2.256104 0.972549 0.972549 0.972549
vn 0.000302 -1.000000 0.000197
v -0.921387 -0.014160 -1.636475 0.972549 0.972549 0.972549
vn -0.000604 -2.000000 0.000395
v 1.324951 -0.014404 -1.638184 0.972549 0.972549 0.972549
vn -0.000302 -1.000000 0.000197
v 0.921387 -0.014160 -1.636475 0.972549 0.972549 0.972549
vn -0.000604 -2.000000 0.000395
v 0.921387 -0.014404 -2.256104 0.972549 0.972549 0.972549
vn -0.000302 -1.000000 0.000197
v 1.324951 -0.014404 -2.256104 0.972549 0.972549 0.972549
vn 0.000000 -2.000000 0.000000
v -1.324951 -0.014404 1.638184 0.972549 0.972549 0.972549
vn 0.000000 -1.000000 0.000000
v -0.921387 -0.014404 1.637939 0.972549 0.972549 0.972549
vn 0.000000 -2.000000 0.000000
v -0.921387 -0.014404 2.256104 0.972549 0.972549 0.972549
vn 0.000000 -1.000000 0.000000
v -1.324951 -0.014404 2.256104 0.972549 0.972549 0.972549
vn 0.000000 0.000000 -2.000000
v 0.331299 0.309815 -3.589600 0.972549 0.972549 0.972549
vn 0.000000 0.000000 -1.000000
v -0.331299 0.309815 -3.589600 0.972549 0.972549 0.972549
vn 0.000000 0.000000 -2.000000
v -0.331299 0.647949 -3.589600 0.972549 0.972549 0.972549
vn 0.000000 0.000000 -1.000000
v 0.331299 0.647949 -3.589600 0.972549 0.972549 0.972549
vn 0.000000 0.000000 2.000000
v 0.331299 0.222900 3.687500 0.972549 0.972549 0.972549
vn 0.000000 0.000000 1.000000
v 0.331299 0.560791 3.687500 0.972549 0.972549 0.972549
vn 0.000000 0.000000 2.000000
v -0.331299 0.560791 3.687500 0.972549 0.972549 0.972549
vn 0.000000 0.000000 1.000000
v -0.331299 0.222900 3.687500 0.972549 0.972549 0.972549
vn 0.000000 -2.000000 0.000000
v 1.439209 0.322266 3.651855 0.972549 0.972549 0.972549
vn 0.000000 -1.000000 0.000000
v -1.439209 0.322266 3.651855 0.972549 0.972549 0.972549
vn 0.000000 -2.000000 0.000000
v -1.379395 0.322266 3.154541 0.972549 0.972549 0.972549
vn 0.000000 -1.000000 0.000000
v 1.379395 0.322266 3.154541 0.972549 0.972549 0.972549
vn -1.980952 0.121905 -0.246920
v -1.439209 0.322266 3.651855 0.972549 0.972549 0.972549
vn -0.990476 0.060953 -0.123460
v -1.414063 0.679688 3.609131 0.972549 0.972549 0.972549
vn -1.980952 0.121905 -0.246920
v -1.355225 0.679688 3.154541 0.972549 0.972549 0.972549
vn -0.990476 0.060953 -0.123460
v -1.379395 0.322266 3.154541 0.972549 0.972549 0.972549
vn 0.000000 2.000000 0.000000
v -1.414063 0.679688 3.609131 0.972549 0.972549 0.972549
vn 0.000000 1.000000 0.000000
v 1.414063 0.679688 3.609131 0.972549 0.972549 0.972549
vn 0.000000 2.000000 0.000000
v 1.355225 0.679688 3.154541 0.972549 0.972549 0.972549
vn 0.000000 1.000000 0.000000
v -1.355225 0.679688 3.154541 0.972549 0.972549 0.972549
vn 0.000000 -2.000000 0.000000
v 1.456055 0.323730 -3.558105 0.972549 0.972549 0.972549
vn 0.000000 -1.000000 0.000000
v 1.388916 0.323730 -2.884277 0.972549 0.972549 0.972549
vn 0.000000 -2.000000 0.000000
v -1.388916 0.323730 -2.884277 0.972549 0.972549 0.972549
vn 0.000000 -1.000000 0.000000
v -1.456055 0.323730 -3.558105 0.972549 0.972549 0.972549
vn 0.000000 2.000000 0.000000
v -1.430420 0.650879 -3.515625 0.972549 0.972549 0.972549
vn 0.000000 1.000000 0.000000
v -1.364502 0.650879 -2.884277 0.972549 0.972549 0.972549
vn 0.000000 2.000000 0.000000
v 1.364502 0.650879 -2.884277 0.972549 0.972549 0.972549
vn 0.000000 1.000000 0.000000
v 1.430420 0.650879 -3.515625 0.972549 0.972549 0.972549
# 188 vertices, 0 vertices normals


usemtl material_0
vt 1.000977 -0.007568
f 1/1/1 2/1/2 3/1/3
f 2/1/2 4/1/4 3/1/3
f 3/1/3 4/1/4 5/1/5
f 4/1/4 6/1/6 5/1/5
f 5/1/5 6/1/6 7/1/7
f 6/1/6 8/1/8 7/1/7
f 7/1/7 8/1/8 9/1/9
f 8/1/8 10/1/10 9/1/9
f 11/1/11 12/1/12 13/1/13
f 12/1/12 14/1/14 13/1/13
f 13/1/13 14/1/14 15/1/15
f 14/1/14 16/1/16 15/1/15
f 15/1/15 16/1/16 17/1/17
f 16/1/16 18/1/18 17/1/17
f 17/1/17 18/1/18 19/1/19
f 18/1/18 20/1/20 19/1/19
f 21/1/21 22/1/22 23/1/23
f 22/1/22 24/1/24 23/1/23
f 23/1/23 24/1/24 25/1/25
f 24/1/24 26/1/26 25/1/25
f 25/1/25 26/1/26 27/1/27
f 26/1/26 28/1/28 27/1/27
f 27/1/27 28/1/28 29/1/29
f 28/1/28 30/1/30 29/1/29
f 31/1/31 32/1/32 33/1/33
f 32/1/32 34/1/34 33/1/33
f 33/1/33 34/1/34 35/1/35
f 34/1/34 36/1/36 35/1/35
f 35/1/35 36/1/36 37/1/37
f 36/1/36 38/1/38 37/1/37
f 37/1/37 38/1/38 39/1/39
f 38/1/38 40/1/40 39/1/39
vt -0.249023 -0.182617
vt -0.249023 -0.160645
vt -0.749023 -0.182617
f 41/2/41 42/3/42 43/4/43
vt -0.749023 -0.160645
f 42/3/42 44/5/44 43/4/43
f 43/4/43 44/5/44 45/2/45
f 44/5/44 46/3/46 45/2/45
f 45/2/45 46/3/46 47/4/47
f 46/3/46 48/5/48 47/4/47
vt -0.359375 -0.501953
vt -0.368164 -0.500000
vt -0.326172 -0.501953
f 49/6/49 50/7/50 51/8/51
vt -0.356445 -0.461426
f 50/7/50 52/9/52 51/8/51
vt -0.154297 -0.501953
f 51/8/51 52/9/52 53/10/53
vt -0.159180 -0.461426
f 52/9/52 54/11/54 53/10/53
vt -1.904297 0.056152
vt -1.904297 -0.054932
vt -1.530273 0.056152
f 55/12/55 56/13/56 57/14/57
vt -1.500000 -0.060547
f 56/13/56 58/15/58 57/14/57
vt -1.095703 0.056152
f 57/14/57 58/15/58 59/16/59
vt -1.095703 -0.060547
f 58/15/58 60/17/60 59/16/59
f 61/7/61 62/6/62 63/9/63
f 62/6/62 64/8/64 63/9/63
f 63/9/63 64/8/64 65/11/65
f 64/8/64 66/10/66 65/11/65
f 67/4/67 68/5/68 69/2/69
f 68/5/68 70/3/70 69/2/69
f 69/2/69 70/3/70 71/4/71
f 70/3/70 72/5/72 71/4/71
vt -0.970703 -0.459717
vt -1.002930 -0.369873
vt -1.969727 -0.369873
f 73/18/73 74/19/74 75/20/75
vt -1.969727 -0.454346
f 73/18/73 75/20/75 76/21/76
vt -2.002930 -0.371094
vt 1.016602 -0.371094
vt 1.016602 -0.454346
f 77/22/77 78/23/78 79/24/79
vt -2.002930 -0.454346
f 77/22/77 79/24/79 80/25/80
vt 1.625000 -0.068359
vt 1.625000 -0.182373
vt 0.373047 -0.182373
f 81/26/81 82/27/82 83/28/83
vt 0.373047 -0.068359
f 81/26/81 83/28/83 84/29/84
vt 1.809570 -0.449951
vt 1.972656 -0.447510
vt 1.979492 -0.374268
f 85/30/85 86/31/86 87/32/87
vt 1.809570 -0.372315
f 85/30/85 87/32/87 88/33/88
vt 1.090820 -0.057129
vt 1.090820 0.056641
vt 0.910156 0.056641
f 89/34/89 90/35/90 91/36/91
vt 0.910156 -0.057129
f 89/34/89 91/36/91 92/37/92
vt 2.000000 -0.370605
vt 3.000000 -0.370605
vt 3.000000 -0.453125
f 93/38/93 94/39/94 95/40/95
vt 2.000000 -0.453125
f 93/38/93 95/40/95 96/41/96
f 97/22/97 98/25/98 99/24/99
f 97/22/97 99/24/99 100/23/100
vt 0.021484 -0.298584
vt 0.978516 -0.298584
vt 0.978516 -0.185791
f 101/42/101 102/43/102 103/44/103
vt 0.021484 -0.185791
f 101/42/101 103/44/103 104/45/104
vt 1.625000 -0.073975
vt 0.373047 -0.073975
f 105/46/105 106/47/106 107/28/107
f 105/46/105 107/28/107 108/27/108
vt -0.823242 -0.489502
vt -0.674805 -0.489502
vt -0.674805 -0.471680
f 109/48/109 110/49/110 111/50/111
vt -0.823242 -0.471680
f 109/48/109 111/50/111 112/51/112
vt 1.916016 -0.450195
vt 1.916016 -0.372315
vt 1.084961 -0.372315
f 113/52/113 114/53/114 115/54/115
vt 1.084961 -0.450195
f 113/52/113 115/54/115 116/55/116
vt 0.000000 -0.278565
vt 1.000000 -0.278565
vt 1.000000 -0.399658
f 117/56/117 118/57/118 119/58/119
vt 0.000000 -0.399658
f 117/56/117 119/58/119 120/59/120
vt 1.311523 -0.461426
vt 0.692383 -0.461426
vt 0.638672 -0.500488
f 121/60/121 122/61/122 123/62/123
vt 1.360352 -0.500488
f 121/60/121 123/62/123 124/63/124
f 125/63/125 126/60/126 127/61/127
f 125/63/125 127/61/127 128/62/128
f 129/30/129 130/33/130 131/32/131
f 129/30/129 131/32/131 132/31/132
vt -0.382812 -0.450684
vt -0.382812 -0.537842
vt -0.584961 -0.537842
f 133/64/133 134/65/134 135/66/135
vt -0.584961 -0.451416
f 133/64/133 135/66/135 136/67/136
f 137/66/137 138/65/138 139/64/139
f 137/66/137 139/64/139 140/67/140
vt 1.566406 -0.182373
vt 1.566406 -0.074951
vt 1.617188 -0.068359
f 141/68/141 142/69/142 143/70/143
vt 1.617188 -0.182373
f 141/68/141 143/70/143 144/71/144
f 145/1/145 146/1/146 147/1/147
f 145/1/145 147/1/147 148/1/148
f 149/1/149 150/1/150 151/1/151
f 149/1/149 151/1/151 152/1/152
f 153/1/153 154/1/154 155/1/155
f 153/1/153 155/1/155 156/1/156
f 157/1/157 158/1/158 159/1/159
f 157/1/157 159/1/159 160/1/160
vt -0.682617 -0.355225
vt -0.320312 -0.355225
vt -0.320312 -0.316895
f 161/72/161 162/73/162 163/74/163
vt -0.682617 -0.316895
f 161/72/161 163/74/163 164/75/164
f 165/73/165 166/74/166 167/75/167
f 165/73/165 167/75/167 168/72/168
f 169/4/169 170/2/170 171/3/171
f 169/4/169 171/3/171 172/5/172
f 173/2/173 174/3/174 175/5/175
f 173/2/173 175/5/175 176/4/176
vt -0.749023 -0.165039
vt -0.249023 -0.165039
vt -0.249023 -0.178711
f 177/76/177 178/77/178 179/78/179
vt -0.749023 -0.178711
f 177/76/177 179/78/179 180/79/180
f 181/4/181 182/5/182 183/3/183
f 181/4/181 183/3/183 184/2/184
f 185/76/185 186/79/186 187/78/187
f 185/76/185 187/78/187 188/77/188
# 112 faces, 79 coords texture

# End of File
