####
#
# OBJ File Generated by Meshlab
#
####
# Object car_tire.obj
#
# Vertices: 8
# Faces: 4
#
####
mtllib ./car_tire.obj.mtl

vn -2.000000 0.000000 0.000000
v -0.062500 -0.284424 0.284424 0.972549 0.972549 0.972549
vn -1.000000 0.000000 0.000000
v -0.062500 0.284424 0.284424 0.972549 0.972549 0.972549
vn -2.000000 0.000000 0.000000
v -0.062500 0.284424 -0.284424 0.972549 0.972549 0.972549
vn -1.000000 0.000000 0.000000
v -0.062500 -0.284424 -0.284424 0.972549 0.972549 0.972549
vn 2.000000 0.000000 0.000000
v 0.062500 -0.284424 0.284424 0.972549 0.972549 0.972549
vn 1.000000 0.000000 0.000000
v 0.062500 -0.284424 -0.284424 0.972549 0.972549 0.972549
vn 2.000000 0.000000 0.000000
v 0.062500 0.284424 -0.284424 0.972549 0.972549 0.972549
vn 1.000000 0.000000 0.000000
v 0.062500 0.284424 0.284424 0.972549 0.972549 0.972549
# 8 vertices, 0 vertices normals


usemtl material_0
vt 0.000000 -1.000000
vt 0.000000 0.000000
vt 1.000000 0.000000
f 1/1/1 2/2/2 3/3/3
vt 1.000000 -1.000000
f 1/1/1 3/3/3 4/4/4
f 5/1/5 6/4/6 7/3/7
f 5/1/5 7/3/7 8/2/8
# 4 faces, 4 coords texture

# End of File
