####
#
# OBJ File Generated by Meshlab
#
####
# Object truck_a.obj
#
# Vertices: 160
# Faces: 84
#
####
mtllib ./truck_a.obj.mtl

vn 0.000000 -4.413543 0.000000
v -0.816894 0.249512 -1.746826 0.972549 0.972549 0.972549
vn 0.000000 -8.827086 0.000000
v 0.816894 0.249512 -1.746826 0.972549 0.972549 0.972549
vn 0.000000 -9.918806 0.000000
v -0.816894 0.249512 0.954590 0.972549 0.972549 0.972549
vn 0.000000 -6.596982 0.000000
v 0.816894 0.249512 0.954590 0.972549 0.972549 0.972549
vn 0.000000 -2.949676 0.000000
v -0.816894 0.249512 1.622803 0.972549 0.972549 0.972549
vn 0.000000 -2.506258 0.000000
v 0.816894 0.249512 1.622803 0.972549 0.972549 0.972549
vn 0.000000 -1.414539 0.000000
v -0.691162 0.249512 2.091797 0.972549 0.972549 0.972549
vn 0.000000 -0.648302 0.000000
v 0.691162 0.249512 2.091797 0.972549 0.972549 0.972549
vn 0.427087 0.063261 0.114497
v 0.816894 0.249512 1.622803 0.972549 0.972549 0.972549
vn 0.730232 0.110675 0.200717
v 0.680176 1.160156 1.629639 0.972549 0.972549 0.972549
vn 0.730232 0.164334 1.213161
v 0.691162 0.249512 2.091797 0.972549 0.972549 0.972549
vn 0.303145 0.146696 1.959474
v 0.587646 0.981934 2.052979 0.972549 0.972549 0.972549
vn -0.343502 0.152711 1.965344
v -0.691162 0.249512 2.091797 0.972549 0.972549 0.972549
vn -0.730232 0.156298 1.061527
v -0.587646 0.981934 2.052979 0.972549 0.972549 0.972549
vn -0.730232 0.110675 0.200717
v -0.816894 0.249512 1.622803 0.972549 0.972549 0.972549
vn -0.386730 0.057246 0.108628
v -0.680176 1.160156 1.629639 0.972549 0.972549 0.972549
vn -0.023639 0.016980 0.064912
v 0.772949 1.309814 1.625488 0.972549 0.972549 0.972549
vn -0.014556 -0.012880 0.146035
v 0.577637 1.002441 1.634766 0.972549 0.972549 0.972549
vn -0.014556 -0.012880 0.146035
v 0.984131 1.309814 1.702393 0.972549 0.972549 0.972549
vn 0.009082 -0.029859 0.081123
v 0.951660 1.085693 1.623535 0.972549 0.972549 0.972549
vn -0.002680 -0.001277 -0.098705
v 0.577637 1.002441 1.634766 0.972549 0.972549 0.972549
vn 0.014556 0.012880 -0.146035
v 0.772949 1.309814 1.625488 0.972549 0.972549 0.972549
vn 0.014556 0.012880 -0.146035
v 0.951660 1.085693 1.623535 0.972549 0.972549 0.972549
vn 0.017236 0.014156 -0.047330
v 0.984131 1.309814 1.702393 0.972549 0.972549 0.972549
vn -0.009082 -0.029859 0.081123
v -0.951660 1.085693 1.623535 0.972549 0.972549 0.972549
vn 0.014556 -0.012880 0.146035
v -0.577637 1.002441 1.634766 0.972549 0.972549 0.972549
vn 0.014556 -0.012880 0.146035
v -0.984131 1.309814 1.702393 0.972549 0.972549 0.972549
vn 0.023639 0.016980 0.064912
v -0.772949 1.309814 1.625488 0.972549 0.972549 0.972549
vn 0.002680 -0.001277 -0.098705
v -0.577637 1.002441 1.634766 0.972549 0.972549 0.972549
vn -0.014556 0.012880 -0.146035
v -0.951660 1.085693 1.623535 0.972549 0.972549 0.972549
vn -0.014556 0.012880 -0.146035
v -0.772949 1.309814 1.625488 0.972549 0.972549 0.972549
vn -0.017236 0.014156 -0.047330
v -0.984131 1.309814 1.702393 0.972549 0.972549 0.972549
vn 2.000000 0.000000 0.000000
v 0.816894 0.249512 0.954590 0.972549 0.972549 0.972549
vn 1.000000 0.000000 0.000000
v 0.816894 0.249512 1.535400 0.972549 0.972549 0.972549
vn 2.000000 0.000000 0.000000
v 0.816894 0.003662 1.403320 0.972549 0.972549 0.972549
vn 1.000000 0.000000 0.000000
v 0.816894 0.003662 1.085938 0.972549 0.972549 0.972549
vn 1.999405 -0.048792 0.000000
v 0.816894 0.249512 -1.746826 0.972549 0.972549 0.972549
vn 0.999702 -0.024396 0.000000
v 0.872559 2.530518 -1.872803 0.972549 0.972549 0.972549
vn 1.999405 -0.048792 0.000000
v 0.872559 2.530518 1.009521 0.972549 0.972549 0.972549
vn 0.999702 -0.024396 0.000000
v 0.816894 0.249512 0.954590 0.972549 0.972549 0.972549
vn 0.000000 -0.048150 1.999420
v 0.872559 2.530518 1.009521 0.972549 0.972549 0.972549
vn 0.000000 -0.024075 0.999710
v -0.872559 2.530518 1.009521 0.972549 0.972549 0.972549
vn 0.000000 -0.048150 1.999420
v -0.816894 0.249512 0.954590 0.972549 0.972549 0.972549
vn 0.000000 -0.024075 0.999710
v 0.816894 0.249512 0.954590 0.972549 0.972549 0.972549
vn -1.999405 -0.048792 0.000000
v -0.816894 0.249512 0.954590 0.972549 0.972549 0.972549
vn -0.999702 -0.024396 0.000000
v -0.872559 2.530518 1.009521 0.972549 0.972549 0.972549
vn -1.999405 -0.048792 0.000000
v -0.872559 2.530518 -1.872803 0.972549 0.972549 0.972549
vn -0.999702 -0.024396 0.000000
v -0.816894 0.249512 -1.746826 0.972549 0.972549 0.972549
vn 0.001693 -1.999999 -0.001576
v 0.528320 0.003662 -1.400391 0.972549 0.972549 0.972549
vn 0.000847 -0.999999 -0.000788
v 0.816894 0.003662 -1.400391 0.972549 0.972549 0.972549
vn 0.001693 -1.999999 -0.001576
v 0.816894 0.003662 -1.090332 0.972549 0.972549 0.972549
vn 0.000847 -0.999999 -0.000788
v 0.528320 0.003174 -1.090820 0.972549 0.972549 0.972549
vn -2.000000 0.000000 0.000000
v 0.528320 0.249512 -1.522461 0.972549 0.972549 0.972549
vn -1.000000 0.000000 0.000000
v 0.528320 0.003662 -1.400391 0.972549 0.972549 0.972549
vn -2.000000 0.000000 0.000000
v 0.528320 0.003174 -1.090820 0.972549 0.972549 0.972549
vn -1.000000 0.000000 0.000000
v 0.528320 0.249512 -0.952637 0.972549 0.972549 0.972549
vn -0.002534 -1.999997 -0.002304
v 0.816894 0.003662 1.085938 0.972549 0.972549 0.972549
vn -0.001267 -0.999999 -0.001152
v 0.816894 0.003662 1.403320 0.972549 0.972549 0.972549
vn -0.002534 -1.999997 -0.002304
v 0.528320 0.003662 1.403320 0.972549 0.972549 0.972549
vn -0.001267 -0.999999 -0.001152
v 0.528320 0.004395 1.084961 0.972549 0.972549 0.972549
vn 0.000000 -0.946530 1.761840
v 0.816894 0.003662 1.403320 0.972549 0.972549 0.972549
vn 0.000000 -0.473265 0.880920
v 0.816894 0.249512 1.535400 0.972549 0.972549 0.972549
vn 0.000000 -0.946530 1.761840
v 0.528320 0.249512 1.535400 0.972549 0.972549 0.972549
vn 0.000000 -0.473265 0.880920
v 0.528320 0.003662 1.403320 0.972549 0.972549 0.972549
vn 0.001793 -0.940814 -1.764898
v 0.528320 0.249512 0.954590 0.972549 0.972549 0.972549
vn 0.000897 -0.470407 -0.882449
v 0.816894 0.249512 0.954590 0.972549 0.972549 0.972549
vn 0.001793 -0.940814 -1.764898
v 0.816894 0.003662 1.085938 0.972549 0.972549 0.972549
vn 0.000897 -0.470407 -0.882449
v 0.528320 0.004395 1.084961 0.972549 0.972549 0.972549
vn 0.002534 -1.999997 -0.002304
v -0.528320 0.003662 1.403320 0.972549 0.972549 0.972549
vn 0.001267 -0.999999 -0.001152
v -0.816894 0.003662 1.403320 0.972549 0.972549 0.972549
vn 0.002534 -1.999997 -0.002304
v -0.816894 0.003662 1.085938 0.972549 0.972549 0.972549
vn 0.001267 -0.999999 -0.001152
v -0.528320 0.004395 1.084961 0.972549 0.972549 0.972549
vn 0.000000 -0.946530 1.761840
v -0.816894 0.249512 1.535400 0.972549 0.972549 0.972549
vn 0.000000 -0.473265 0.880920
v -0.816894 0.003662 1.403320 0.972549 0.972549 0.972549
vn 0.000000 -0.946530 1.761840
v -0.528320 0.003662 1.403320 0.972549 0.972549 0.972549
vn 0.000000 -0.473265 0.880920
v -0.528320 0.249512 1.535400 0.972549 0.972549 0.972549
vn -0.001793 -0.940814 -1.764898
v -0.816894 0.003662 1.085938 0.972549 0.972549 0.972549
vn -0.000897 -0.470407 -0.882449
v -0.816894 0.249512 0.954590 0.972549 0.972549 0.972549
vn -0.001793 -0.940814 -1.764898
v -0.528320 0.249512 0.954590 0.972549 0.972549 0.972549
vn -0.000897 -0.470407 -0.882449
v -0.528320 0.004395 1.084961 0.972549 0.972549 0.972549
vn -2.000000 0.000000 0.000000
v -0.816894 0.249512 1.535400 0.972549 0.972549 0.972549
vn -1.000000 0.000000 0.000000
v -0.816894 0.249512 0.954590 0.972549 0.972549 0.972549
vn -2.000000 0.000000 0.000000
v -0.816894 0.003662 1.085938 0.972549 0.972549 0.972549
vn -1.000000 0.000000 0.000000
v -0.816894 0.003662 1.403320 0.972549 0.972549 0.972549
vn -0.000648 -0.977891 1.744629
v 0.816894 0.003662 -1.090332 0.972549 0.972549 0.972549
vn -0.000324 -0.488945 0.872314
v 0.816894 0.249512 -0.952637 0.972549 0.972549 0.972549
vn -0.000648 -0.977891 1.744629
v 0.528320 0.249512 -0.952637 0.972549 0.972549 0.972549
vn -0.000324 -0.488945 0.872314
v 0.528320 0.003174 -1.090820 0.972549 0.972549 0.972549
vn 0.000000 -0.889442 -1.791339
v 0.816894 0.249512 -1.522461 0.972549 0.972549 0.972549
vn 0.000000 -0.444721 -0.895669
v 0.816894 0.003662 -1.400391 0.972549 0.972549 0.972549
vn 0.000000 -0.889442 -1.791339
v 0.528320 0.003662 -1.400391 0.972549 0.972549 0.972549
vn 0.000000 -0.444721 -0.895669
v 0.528320 0.249512 -1.522461 0.972549 0.972549 0.972549
vn -0.001693 -1.999999 -0.001576
v -0.528320 0.003662 -1.400391 0.972549 0.972549 0.972549
vn -0.000847 -0.999999 -0.000788
v -0.528320 0.003174 -1.090820 0.972549 0.972549 0.972549
vn -0.001693 -1.999999 -0.001576
v -0.816894 0.003662 -1.090332 0.972549 0.972549 0.972549
vn -0.000847 -0.999999 -0.000788
v -0.816894 0.003662 -1.400391 0.972549 0.972549 0.972549
vn 0.000000 -0.889442 -1.791339
v -0.816894 0.003662 -1.400391 0.972549 0.972549 0.972549
vn 0.000000 -0.444721 -0.895669
v -0.816894 0.249512 -1.522461 0.972549 0.972549 0.972549
vn 0.000000 -0.889442 -1.791339
v -0.528320 0.249512 -1.522461 0.972549 0.972549 0.972549
vn 0.000000 -0.444721 -0.895669
v -0.528320 0.003662 -1.400391 0.972549 0.972549 0.972549
vn 2.000000 0.000000 0.000000
v 0.816894 0.249512 -1.522461 0.972549 0.972549 0.972549
vn 1.000000 0.000000 0.000000
v 0.816894 0.249512 -0.952637 0.972549 0.972549 0.972549
vn 2.000000 0.000000 0.000000
v 0.816894 0.003662 -1.090332 0.972549 0.972549 0.972549
vn 1.000000 0.000000 0.000000
v 0.816894 0.003662 -1.400391 0.972549 0.972549 0.972549
vn -2.000000 0.000000 0.000000
v -0.816894 0.249512 -0.952637 0.972549 0.972549 0.972549
vn -1.000000 0.000000 0.000000
v -0.816894 0.249512 -1.522461 0.972549 0.972549 0.972549
vn -2.000000 0.000000 0.000000
v -0.816894 0.003662 -1.400391 0.972549 0.972549 0.972549
vn -1.000000 0.000000 0.000000
v -0.816894 0.003662 -1.090332 0.972549 0.972549 0.972549
vn -2.000000 0.000000 0.000000
v 0.528320 0.249512 0.954590 0.972549 0.972549 0.972549
vn -1.000000 0.000000 0.000000
v 0.528320 0.004395 1.084961 0.972549 0.972549 0.972549
vn -2.000000 0.000000 0.000000
v 0.528320 0.003662 1.403320 0.972549 0.972549 0.972549
vn -1.000000 0.000000 0.000000
v 0.528320 0.249512 1.535400 0.972549 0.972549 0.972549
vn 2.000000 0.000000 0.000000
v -0.528320 0.249512 1.535400 0.972549 0.972549 0.972549
vn 1.000000 0.000000 0.000000
v -0.528320 0.003662 1.403320 0.972549 0.972549 0.972549
vn 2.000000 0.000000 0.000000
v -0.528320 0.004395 1.084961 0.972549 0.972549 0.972549
vn 1.000000 0.000000 0.000000
v -0.528320 0.249512 0.954590 0.972549 0.972549 0.972549
vn 2.000000 0.000000 0.000000
v -0.528320 0.249512 -0.952637 0.972549 0.972549 0.972549
vn 1.000000 0.000000 0.000000
v -0.528320 0.003174 -1.090820 0.972549 0.972549 0.972549
vn 2.000000 0.000000 0.000000
v -0.528320 0.003662 -1.400391 0.972549 0.972549 0.972549
vn 1.000000 0.000000 0.000000
v -0.528320 0.249512 -1.522461 0.972549 0.972549 0.972549
vn 0.000648 -0.977891 1.744629
v -0.816894 0.003662 -1.090332 0.972549 0.972549 0.972549
vn 0.000324 -0.488945 0.872314
v -0.528320 0.003174 -1.090820 0.972549 0.972549 0.972549
vn 0.000648 -0.977891 1.744629
v -0.528320 0.249512 -0.952637 0.972549 0.972549 0.972549
vn 0.000324 -0.488945 0.872314
v -0.816894 0.249512 -0.952637 0.972549 0.972549 0.972549
vn 0.000000 1.843311 0.776018
v -0.587646 0.981934 2.052979 0.972549 0.972549 0.972549
vn 0.000000 0.921656 0.388009
v 0.587646 0.981934 2.052979 0.972549 0.972549 0.972549
vn 0.000000 1.843311 0.776018
v 0.680176 1.160156 1.629639 0.972549 0.972549 0.972549
vn 0.000000 0.921656 0.388009
v -0.680176 1.160156 1.629639 0.972549 0.972549 0.972549
vn 0.000000 0.596637 1.908933
v -0.680176 1.160156 1.629639 0.972549 0.972549 0.972549
vn 0.000000 0.298318 0.954466
v 0.680176 1.160156 1.629639 0.972549 0.972549 0.972549
vn 0.000000 0.596637 1.908933
v 0.533447 1.778809 1.436279 0.972549 0.972549 0.972549
vn 0.000000 0.298318 0.954466
v -0.533447 1.778809 1.436279 0.972549 0.972549 0.972549
vn 0.000000 2.000000 0.000000
v 0.534180 1.778809 0.953857 0.972549 0.972549 0.972549
vn 0.000000 1.000000 0.000000
v -0.534180 1.778809 0.953857 0.972549 0.972549 0.972549
vn 0.000000 2.000000 0.000000
v -0.533447 1.778809 1.436279 0.972549 0.972549 0.972549
vn 0.000000 1.000000 0.000000
v 0.533447 1.778809 1.436279 0.972549 0.972549 0.972549
vn 1.978333 0.293560 0.004661
v 0.816894 0.249512 0.954590 0.972549 0.972549 0.972549
vn 0.989166 0.146780 0.002330
v 0.683594 1.158447 0.954590 0.972549 0.972549 0.972549
vn 1.978333 0.293560 0.004661
v 0.680176 1.160156 1.629639 0.972549 0.972549 0.972549
vn 0.989166 0.146780 0.002330
v 0.816894 0.249512 1.622803 0.972549 0.972549 0.972549
vn -1.978333 0.293560 0.004661
v -0.680176 1.160156 1.629639 0.972549 0.972549 0.972549
vn -0.989166 0.146780 0.002330
v -0.683594 1.158447 0.954590 0.972549 0.972549 0.972549
vn -1.978333 0.293560 0.004661
v -0.816894 0.249512 0.954590 0.972549 0.972549 0.972549
vn -0.989166 0.146780 0.002330
v -0.816894 0.249512 1.622803 0.972549 0.972549 0.972549
vn 1.944976 0.465862 0.006286
v 0.533447 1.778809 1.436279 0.972549 0.972549 0.972549
vn 0.972488 0.232931 0.003143
v 0.680176 1.160156 1.629639 0.972549 0.972549 0.972549
vn 1.944976 0.465862 0.006286
v 0.683594 1.158447 0.954590 0.972549 0.972549 0.972549
vn 0.972488 0.232931 0.003143
v 0.534180 1.778809 0.953857 0.972549 0.972549 0.972549
vn -1.944976 0.465862 0.006286
v -0.683594 1.158447 0.954590 0.972549 0.972549 0.972549
vn -0.972488 0.232931 0.003143
v -0.680176 1.160156 1.629639 0.972549 0.972549 0.972549
vn -1.944976 0.465862 0.006286
v -0.533447 1.778809 1.436279 0.972549 0.972549 0.972549
vn -0.972488 0.232931 0.003143
v -0.534180 1.778809 0.953857 0.972549 0.972549 0.972549
vn 0.000000 2.000000 0.000000
v -0.872559 2.530518 1.009521 0.972549 0.972549 0.972549
vn 0.000000 1.000000 0.000000
v 0.872559 2.530518 1.009521 0.972549 0.972549 0.972549
vn 0.000000 2.000000 0.000000
v 0.872559 2.530518 -1.872803 0.972549 0.972549 0.972549
vn 0.000000 1.000000 0.000000
v -0.872559 2.530518 -1.872803 0.972549 0.972549 0.972549
vn 0.000000 -0.110289 -1.996957
v -0.872559 2.530518 -1.872803 0.972549 0.972549 0.972549
vn 0.000000 -0.055145 -0.998478
v 0.872559 2.530518 -1.872803 0.972549 0.972549 0.972549
vn 0.000000 -0.110289 -1.996957
v 0.816894 0.249512 -1.746826 0.972549 0.972549 0.972549
vn 0.000000 -0.055145 -0.998478
v -0.816894 0.249512 -1.746826 0.972549 0.972549 0.972549
# 160 vertices, 0 vertices normals


usemtl material_0
vt -0.298340 -0.447266
vt -0.298340 -0.552734
vt -0.582031 -0.447266
f 1/1/1 2/2/2 3/3/3
vt -0.582031 -0.552734
f 2/2/2 4/4/4 3/3/3
vt -0.652344 -0.447266
f 3/3/3 4/4/4 5/5/5
vt -0.652344 -0.552734
f 4/4/4 6/6/6 5/5/5
vt -0.701660 -0.453125
f 5/5/5 6/6/6 7/7/7
vt -0.701660 -0.546875
f 6/6/6 8/8/8 7/7/7
vt 1.170898 -0.529785
vt 1.164063 -0.261230
vt 1.165039 -0.529785
f 9/9/9 10/10/10 11/11/11
vt 1.137207 -0.317383
f 10/10/10 12/12/12 11/11/11
vt 0.835449 -0.529785
f 11/11/11 12/12/12 13/13/13
vt 0.863769 -0.317383
f 12/12/12 14/14/14 13/13/13
vt 0.828613 -0.529785
f 13/13/13 14/14/14 15/15/15
vt 0.836426 -0.261230
f 14/14/14 16/16/16 15/15/15
vt -0.161133 -0.260254
vt -0.146484 -0.394043
vt -0.168457 -0.310059
f 17/17/17 18/18/18 19/19/19
vt -0.157227 -0.460449
f 18/18/18 20/20/20 19/19/19
vt 0.295410 -0.544434
vt 0.295410 -0.454590
vt 0.188965 -0.544434
f 21/21/21 22/22/22 23/23/23
vt 0.188965 -0.454590
f 22/22/22 24/24/24 23/23/23
f 25/20/25 26/18/26 27/19/27
f 26/18/26 28/17/28 27/19/27
f 29/21/29 30/23/30 31/22/31
f 30/23/30 32/24/32 31/22/31
vt 0.002441 -0.559082
vt 0.002441 -0.558106
vt -0.001953 -0.558106
f 33/25/33 34/26/34 35/27/35
vt -0.001953 -0.559082
f 33/25/33 35/27/35 36/28/36
vt 0.500000 -0.445312
vt 0.500000 -0.166016
vt 0.187988 -0.166016
f 37/29/37 38/30/38 39/31/39
vt 0.187988 -0.445312
f 37/29/37 39/31/39 40/32/40
f 41/30/41 42/31/42 43/32/43
f 41/30/41 43/32/43 44/29/44
f 45/29/45 46/30/46 47/31/47
f 45/29/45 47/31/47 48/32/48
f 49/27/49 50/25/50 51/27/51
vt 0.002441 -0.558594
f 49/27/49 51/27/51 52/33/52
vt 0.000488 -0.558106
f 53/25/53 54/26/54 55/34/55
f 53/25/53 55/34/55 56/27/56
f 57/25/57 58/26/58 59/25/59
f 57/25/57 59/25/59 60/33/60
f 61/25/61 62/26/62 63/27/63
f 61/25/61 63/27/63 64/28/64
f 65/27/65 66/25/66 67/27/67
f 65/27/65 67/27/67 68/33/68
f 69/27/69 70/25/70 71/26/71
vt 0.000488 -0.558594
f 69/27/69 71/26/71 72/35/72
f 73/25/73 74/26/74 75/27/75
f 73/25/73 75/27/75 76/28/76
f 77/25/77 78/26/78 79/27/79
f 77/25/77 79/27/79 80/35/80
f 81/25/81 82/26/82 83/27/83
f 81/25/81 83/27/83 84/28/84
f 85/25/85 86/26/86 87/25/87
f 85/25/85 87/25/87 88/33/88
f 89/25/89 90/26/90 91/27/91
f 89/25/89 91/27/91 92/28/92
f 93/27/93 94/35/94 95/25/95
f 93/27/93 95/25/95 96/26/96
f 97/25/97 98/26/98 99/27/99
f 97/25/97 99/27/99 100/28/100
f 101/25/101 102/26/102 103/27/103
f 101/25/101 103/27/103 104/28/104
f 105/25/105 106/26/106 107/27/107
f 105/25/105 107/27/107 108/28/108
f 109/25/109 110/33/110 111/26/111
f 109/25/109 111/26/111 112/27/112
f 113/25/113 114/26/114 115/34/115
f 113/25/113 115/34/115 116/27/116
f 117/25/117 118/33/118 119/26/119
f 117/25/117 119/26/119 120/27/120
f 121/26/121 122/35/122 123/27/123
f 121/26/121 123/27/123 124/25/124
vt 1.164063 -0.254395
f 125/14/125 126/12/126 127/36/127
vt 0.836426 -0.254395
f 125/14/125 127/36/127 128/37/128
vt -0.181152 -0.255859
vt 0.181152 -0.255859
vt 0.152832 -0.150879
f 129/38/129 130/39/130 131/40/131
vt -0.152832 -0.150879
f 129/38/129 131/40/131 132/41/132
vt 0.040039 -0.152344
vt -0.029785 -0.152344
f 133/42/133 134/43/134 135/43/135
f 133/42/133 135/43/135 136/42/136
vt 0.183105 -0.529785
vt 0.183105 -0.260742
vt 0.150879 -0.260742
f 137/44/137 138/45/138 139/46/139
vt 0.150879 -0.529785
f 137/44/137 139/46/139 140/47/140
f 141/46/141 142/45/142 143/44/143
f 141/46/141 143/44/143 144/47/144
vt 0.831055 -0.149414
vt 0.813477 -0.255371
vt 1.193848 -0.255371
f 145/48/145 146/49/146 147/50/147
vt 1.193848 -0.149414
f 145/48/145 147/50/147 148/51/148
f 149/50/149 150/49/150 151/48/151
f 149/50/149 151/48/151 152/51/152
vt 0.305176 -0.160645
vt 0.694824 -0.160645
vt 0.694824 -0.152344
f 153/52/153 154/53/154 155/54/155
vt 0.305176 -0.152344
f 153/52/153 155/54/155 156/55/156
vt 0.000000 0.147949
vt 0.000000 -0.146973
vt 0.545410 -0.141602
f 157/56/157 158/57/158 159/58/159
vt 0.545410 0.143066
f 157/56/157 159/58/159 160/59/160
# 84 faces, 59 coords texture

# End of File
